# xmcd
#
# Track frame offsets: 
#        150
#        50744
#        69821
#        96808
#        117547
#        150087
#        170461
#        203459
#
# Disc length: 3174 seconds
#
# Revision: 5
# Processed by: cddbd v1.5.2PL0 Copyright (c) Steve Scherf et al.
# Submitted via: ExactAudioCopyFreeDBPlugin 1.0
#
DISCID=5c0c6408
DTITLE=Various Artist - A Tom Moulton Mix [Soul Jazz Records]
DYEAR=2006
DGENRE=Soul
TTITLE0=Eddie Kendricks - Keep on Truckin'
TTITLE1=Al Downing - I'll Be Holding On
TTITLE2=B.T. Express - Peace Pipe
TTITLE3=Don Downing - Dreamworld
TTITLE4=Patti Jo - Make Me Believe in You
TTITLE5=Clara Lewis - Needing You
TTITLE6=South Shore Commission - Free Man
TTITLE7=Camouflage - You've Got the Power
EXTD=
EXTT0=
EXTT1=
EXTT2=
EXTT3=
EXTT4=
EXTT5=
EXTT6=
EXTT7=
PLAYORDER=
